<svg width="48" height="48" version="1.1" viewBox="0 0 12.7 12.7" xmlns="http://www.w3.org/2000/svg">
 <g transform="translate(-55.723 -92.673)">
  <path d="m55.723 92.673v12.7h12.7v-12.7zm7.3965 1.6001c0.57235-0.0044 1.1228 0.0639 1.6339 0.20142 1.258 0.33853 2.2991 1.1204 2.7261 2.2838 0.42705 1.1634 0.14287 2.4432-0.59188 3.5302-0.73475 1.087-1.9214 2.0136-3.3946 2.5669s-2.97 0.63471-4.2281 0.29617c-1.258-0.33853-2.299-1.1204-2.7261-2.2838-0.42705-1.1634-0.14287-2.4432 0.59188-3.5302 0.73475-1.087 1.9211-2.0145 3.3944-2.5678 0.87474-0.32854 1.7579-0.49024 2.5944-0.49668zm0.0078 0.9477c-0.72275 6e-3 -1.5014 0.14469-2.2767 0.43588-1.3057 0.49042-2.3391 1.3145-2.9472 2.2143-0.60819 0.89977-0.79063 1.8428-0.48796 2.6674 0.30268 0.82457 1.0493 1.4188 2.0906 1.699s2.3557 0.22155 3.6614-0.26887c1.3057-0.49043 2.3402-1.3141 2.9484-2.2138 0.60819-0.89977 0.78971-1.8423 0.48704-2.6669-0.30268-0.82456-1.0484-1.419-2.0897-1.6993-0.42304-0.11384-0.89136-0.1718-1.3859-0.1677zm-1.1897 2.6018a1.1098 1.1098 0 0 1 1.1099 1.1099 1.1098 1.1098 0 0 1-1.1099 1.1099 1.1098 1.1098 0 0 1-1.1097-1.1099 1.1098 1.1098 0 0 1 1.1097-1.1099z" color="#000000" fill="#ff3503"/>
 </g>
</svg>
