<?xml version="1.0" encoding="UTF-8"?>
<svg width="29.433" height="29.433" fill="none" version="1.1" viewBox="0 0 29.433 29.433" xmlns="http://www.w3.org/2000/svg">
 <circle cx="14.717" cy="14.717" r="14.717" fill="#00222b" fill-rule="evenodd" stroke-width="1.1068"/>
 <g transform="matrix(.66669 0 0 .66669 4.0828 4.0211)" fill="#d5fff6">
  <!-- Outer white frame -->
  <path d="m5.6328 1.0428c0.87169 0 1.7135 0.32159 2.3675 0.90449l0.86189 0.76809c0.54507 0.48575 1.2466 0.75375 1.973 0.75375h10.23c0.7264 0 1.4279-0.268 1.973-0.75375l0.8618-0.76809c0.6541-0.5829 1.4959-0.90449 2.3676-0.90449h4.6825v2.7283h-30v-2.7283z"/>
  <path d="m26.268 31.043c-0.8717 0-1.7135-0.3216-2.3676-0.9045l-0.8618-0.7681c-0.5451-0.4857-1.2466-0.7537-1.973-0.7537h-10.23c-0.7264 0-1.4279 0.268-1.973 0.7537l-0.86189 0.7681c-0.65408 0.5829-1.4958 0.9045-2.3675 0.9045h-4.6825v-2.7283h30v2.7283z"/>
  <path d="m23.9 4.9773c0.6541-0.5829 1.4959-0.90449 2.3676-0.90449h4.6825v2.7283h-30v-2.7283h4.6825c0.87169 0 1.7135 0.32159 2.3675 0.90449l0.86189 0.76809c0.54507 0.48575 1.2466 0.75375 1.973 0.75375h10.23c0.7264 0 1.4279-0.268 1.973-0.75375z"/>
  <path d="m26.268 28.013c-0.8717 0-1.7135-0.3216-2.3676-0.9045l-0.8618-0.7681c-0.5451-0.4857-1.2466-0.7537-1.973-0.7537h-10.23c-0.7264 0-1.4279 0.268-1.973 0.7537l-0.86189 0.7681c-0.65408 0.5829-1.4958 0.9045-2.3675 0.9045h-4.6825v-2.7283h30v2.7283z"/>
  <!-- More frame details -->
  <path d="m27.771 8.0078c0.6541-0.5829 1.4958-0.90449 2.3675-0.90449h0.8118v2.7283h-6.0605v-0.30194h0.0463c0.7264 0 1.4279-0.26799 1.973-0.75374z"/>
  <path d="m24.89 12.56h0.0463c0.7264 0 1.4279-0.268 1.973-0.7537l0.8619-0.7681c0.6541-0.5829 1.4958-0.9045 2.3675-0.9045h0.8118v2.7282h-6.0605z"/>
  <path d="m7.0108 9.5296v0.30194h-6.0605v-2.7283h0.81177c0.87169 0 1.7135 0.32159 2.3676 0.90449l0.86189 0.76809c0.54506 0.48575 1.2465 0.75374 1.973 0.75374z"/>
  <path d="m7.0108 12.56v0.3019h-6.0605v-2.7282h0.81177c0.87169 0 1.7135 0.3216 2.3676 0.9045l0.86189 0.7681c0.54506 0.4857 1.2465 0.7537 1.973 0.7537z"/>
  <path d="m6.9644 15.59h0.04637v0.3019h-6.0605v-2.7283h0.81177c0.87169 0 1.7135 0.3216 2.3676 0.9045l0.86189 0.7681c0.54506 0.4858 1.2465 0.7538 1.973 0.7538z"/>
  <path d="m24.89 15.892h6.0605v-2.7283h-0.8118c-0.8717 0-1.7134 0.3216-2.3675 0.9045l-0.8619 0.7681c-0.5451 0.4858-1.2466 0.7538-1.973 0.7538h-0.0463z"/>
  <path d="m24.936 18.62h-0.0463v0.302h6.0605v-2.7283h-0.8118c-0.8717 0-1.7134 0.3216-2.3675 0.9045l-0.8619 0.7681c-0.5451 0.4857-1.2466 0.7537-1.973 0.7537z"/>
  <path d="m7.0108 18.62h-0.04637c-0.72641 0-1.4279-0.268-1.973-0.7537l-0.86189-0.7681c-0.65409-0.5829-1.4959-0.9045-2.3676-0.9045h-0.81177v2.7283h6.0605z"/>
  <path d="m6.9644 21.65h0.04637v0.3019h-6.0605v-2.7282h0.81177c0.87169 0 1.7135 0.3216 2.3676 0.9045l0.86189 0.7681c0.54506 0.4857 1.2465 0.7537 1.973 0.7537z"/>
  <path d="m24.89 21.952h6.0605v-2.7282h-0.8118c-0.8717 0-1.7134 0.3216-2.3675 0.9045l-0.8619 0.7681c-0.5451 0.4857-1.2466 0.7537-1.973 0.7537h-0.0463z"/>
  <path d="m24.936 24.68h-0.0491v0.3019h6.0633v-2.7282h-0.8118c-0.8717 0-1.7134 0.3216-2.3675 0.9045l-0.8619 0.7681c-0.5451 0.4857-1.2466 0.7537-1.973 0.7537z"/>
  <path d="m7.0135 24.982v-0.3019h-0.04906c-0.72641 0-1.4279-0.268-1.973-0.7537l-0.86189-0.7681c-0.65409-0.5829-1.4959-0.9045-2.3676-0.9045h-0.81177v2.7282z"/>
  <!-- ClipPath for the gradient area -->
 </g>
 <clipPath id="clipSquare">
  <rect x="9.4338" y="9.4338" width="13.137" height="13.137" rx="2"/>
 </clipPath>
 <!-- Gradient content -->
 <!-- Optional black inner square (kept as in original) -->
 <rect x="10.717" y="10.717" width="8" height="8" rx="1.2179" fill="#d5fff6" stroke-width=".60897"/>
 <!-- Filters & Gradients -->
</svg>
