<?xml version="1.0" encoding="UTF-8"?>
<svg width="156.85" height="32" version="1.1" viewBox="0 0 41.5 8.4667" xmlns="http://www.w3.org/2000/svg">
 <g transform="translate(38.392 -51.086)">
  <path d="m-38.392 51.086v8.4667h8.4667v-8.4667zm4.931 1.0668c0.38157-0.0029 0.74853 0.0426 1.0892 0.13428 0.83868 0.22569 1.5327 0.74694 1.8174 1.5225 0.2847 0.77559 0.09524 1.6288-0.39459 2.3535-0.48983 0.72467-1.2809 1.3424-2.2631 1.7113-0.98217 0.3689-1.98 0.42314-2.8187 0.19745-0.83868-0.22569-1.5327-0.74694-1.8174-1.5225-0.2847-0.77559-0.09524-1.6288 0.39459-2.3535 0.48983-0.72467 1.2808-1.343 2.2629-1.7119 0.58316-0.21903 1.1719-0.32683 1.7296-0.33112zm0.0052 0.6318c-0.48184 4e-3 -1.0009 0.09646-1.5178 0.29059-0.87048 0.32695-1.5594 0.87634-1.9648 1.4762-0.40546 0.59985-0.52709 1.2285-0.32531 1.7782 0.20178 0.54971 0.69953 0.94587 1.3938 1.1327 0.69422 0.18681 1.5705 0.1477 2.4409-0.17925 0.87049-0.32695 1.5601-0.87604 1.9656-1.4759 0.40546-0.59985 0.52647-1.2282 0.3247-1.7779-0.20178-0.54971-0.69892-0.94602-1.3931-1.1328-0.28203-0.0759-0.59424-0.11453-0.92392-0.1118zm-0.79315 1.7345a0.7399 0.7399 0 0 1 0.73993 0.73993 0.7399 0.7399 0 0 1-0.73993 0.73993 0.7399 0.7399 0 0 1-0.73978-0.73993 0.7399 0.7399 0 0 1 0.73978-0.73993z" color="#000000" fill="#ff3503"/>
  <g transform="matrix(.94118 0 0 .94118 -2.2584 3.005)" stroke-width=".1097" aria-label="OCELLOIDS" fill="#ffffff">
   <path d="m-26.573 57.452h0.68719q0.57661 0 0.57661-0.58451v-2.5671q0-0.58451-0.57661-0.58451h-0.68719q-0.56871 0-0.56871 0.58451v2.5671q0 0.58451 0.56871 0.58451zm0.80568 0.6714h-0.91626q-0.58451 0-0.90836-0.32385-0.31595-0.32385-0.31595-0.90046v-2.6303q0-0.58451 0.31595-0.90046 0.32385-0.32385 0.90836-0.32385h0.91626q0.58451 0 0.90836 0.32385 0.32385 0.31595 0.32385 0.90046v2.6303q0 0.57661-0.32385 0.90046t-0.90836 0.32385z"/>
   <path d="m-21.407 58.123h-0.91626q-0.58451 0-0.90836-0.32385-0.31595-0.32385-0.31595-0.90046v-2.6303q0-0.58451 0.31595-0.90046 0.32385-0.32385 0.90836-0.32385h0.91626q0.57661 0 0.90046 0.32385 0.32385 0.31595 0.32385 0.90046v0.37914q0 0.14218-0.14218 0.14218h-0.49762q-0.13428 0-0.13428-0.14218v-0.34755q0-0.58451-0.56871-0.58451h-0.68719q-0.56871 0-0.56871 0.58451v2.5671q0 0.58451 0.56871 0.58451h0.68719q0.56871 0 0.56871-0.58451v-0.34755q0-0.14218 0.13428-0.14218h0.49762q0.14218 0 0.14218 0.14218v0.37914q0 0.57661-0.32385 0.90046t-0.90046 0.32385z"/>
   <path d="m-16.541 58.123h-2.5276q-0.13428 0-0.13428-0.13428v-4.8104q0-0.13428 0.13428-0.13428h2.5276q0.12638 0 0.12638 0.13428v0.40284q0 0.13428-0.12638 0.13428h-1.8009q-0.09478 0-0.09478 0.07899v1.3349q0 0.07899 0.09478 0.07899h1.5245q0.14218 0 0.14218 0.13428v0.40284q0 0.13428-0.14218 0.13428h-1.5245q-0.09478 0-0.09478 0.07899v1.406q0 0.08689 0.09478 0.08689h1.8009q0.12638 0 0.12638 0.13428v0.40284q0 0.13428-0.12638 0.13428z"/>
   <path d="m-12.718 58.123h-2.5592q-0.13428 0-0.13428-0.13428v-4.8104q0-0.13428 0.13428-0.13428h0.49762q0.13428 0 0.13428 0.13428v4.1785q0 0.07899 0.09479 0.07899h1.8325q0.13428 0 0.13428 0.14218v0.41074q0 0.13428-0.13428 0.13428z"/>
   <path d="m-9.164 58.123h-2.5592q-0.13428 0-0.13428-0.13428v-4.8104q0-0.13428 0.13428-0.13428h0.49762q0.13428 0 0.13428 0.13428v4.1785q0 0.07899 0.09478 0.07899h1.8325q0.13428 0 0.13428 0.14218v0.41074q0 0.13428-0.13428 0.13428z"/>
   <path d="m-7.0471 57.452h0.68719q0.57661 0 0.57661-0.58451v-2.5671q0-0.58451-0.57661-0.58451h-0.68719q-0.56871 0-0.56871 0.58451v2.5671q0 0.58451 0.56871 0.58451zm0.80568 0.6714h-0.91626q-0.58451 0-0.90836-0.32385-0.31595-0.32385-0.31595-0.90046v-2.6303q0-0.58451 0.31595-0.90046 0.32385-0.32385 0.90836-0.32385h0.91626q0.58451 0 0.90836 0.32385 0.32385 0.31595 0.32385 0.90046v2.6303q0 0.57661-0.32385 0.90046-0.32385 0.32385-0.90836 0.32385z"/>
   <path d="m-3.1372 53.178v4.8104q0 0.13428-0.13428 0.13428h-0.49762q-0.13428 0-0.13428-0.13428v-4.8104q0-0.13428 0.13428-0.13428h0.49762q0.13428 0 0.13428 0.13428z"/>
   <path d="m-1.0915 57.452h1.1137q0.56871 0 0.56871-0.58451v-2.5671q0-0.58451-0.56871-0.58451h-1.1137q-0.086887 0-0.086887 0.07899v3.5702q0 0.08689 0.086887 0.08689zm-0.85307 0.53712v-4.8104q0-0.13428 0.13428-0.13428h1.9431q0.57661 0 0.90046 0.32385 0.33175 0.31595 0.33175 0.90046v2.6303q0 0.57661-0.33175 0.90046-0.32385 0.32385-0.90046 0.32385h-1.9431q-0.13428 0-0.13428-0.13428z"/>
   <path d="m2.3445 56.891v-0.20537q0-0.13428 0.13428-0.13428h0.50552q0.13428 0 0.13428 0.13428v0.14218q0 0.33175 0.14218 0.48183 0.15008 0.14218 0.48972 0.14218h0.54502q0.33965 0 0.48972-0.15008 0.15008-0.15798 0.15008-0.50552v-0.18167q0-0.25276-0.19747-0.39494-0.18957-0.15008-0.47393-0.18957-0.28436-0.047393-0.624-0.12638-0.33965-0.078988-0.624-0.18167-0.28436-0.10268-0.48183-0.38704-0.18957-0.28436-0.18957-0.72669v-0.33175q0-0.57661 0.32385-0.90046 0.33175-0.33175 0.90836-0.33175h0.83727q0.58451 0 0.90836 0.33175 0.33175 0.32385 0.33175 0.90046v0.17377q0 0.13428-0.13428 0.13428h-0.50552q-0.13428 0-0.13428-0.13428v-0.10268q0-0.33965-0.15008-0.48183-0.14218-0.15008-0.48183-0.15008h-0.49762q-0.33965 0-0.48972 0.15798-0.14218 0.15008-0.14218 0.52132v0.24486q0 0.35544 0.51342 0.48183 0.22906 0.05529 0.49762 0.09479 0.27646 0.03949 0.55291 0.11848 0.27646 0.07899 0.50552 0.21327 0.22906 0.12638 0.37124 0.39494 0.14218 0.26066 0.14218 0.6398v0.30805q0 0.57661-0.33175 0.90836-0.32385 0.32385-0.90046 0.32385h-0.88466q-0.57661 0-0.90836-0.32385-0.33175-0.33175-0.33175-0.90836z"/>
  </g>
 </g>
</svg>